<svg xmlns="http://www.w3.org/2000/svg" xmlns:xlink="http://www.w3.org/1999/xlink" version="1.1" x="0px" y="0px" viewBox="0 0 100 125" enable-background="new 0 0 100 100" xml:space="preserve"><path d="M50.001,11.333c-21.321,0-38.667,17.346-38.667,38.667c0,21.321,17.346,38.667,38.667,38.667S88.668,71.321,88.668,50  C88.668,28.679,71.322,11.333,50.001,11.333z M84.668,50c0,8.839-3.33,16.912-8.795,23.042L62.828,59.998v-9.333  c0-6.562-0.527-8.427-3.762-13.306c-2.273-3.43-2.547-6.903-2.559-8.237c-0.002-0.171-0.034-0.333-0.079-0.49  c0.535-0.461,0.881-1.135,0.881-1.894c0-1.384-1.126-2.51-2.511-2.51h-9.6c-1.385,0-2.511,1.126-2.511,2.51  c0,0.76,0.346,1.434,0.881,1.894c-0.045,0.157-0.077,0.32-0.079,0.491c-0.012,1.334-0.285,4.807-2.558,8.236  c-0.104,0.156-0.197,0.301-0.295,0.451L26.959,24.13c6.13-5.466,14.203-8.796,23.043-8.796C69.117,15.333,84.668,30.885,84.668,50z   M40.103,42.93l20.725,20.724v7.753c0,0.431-0.269,0.811-0.668,0.944c-1.587,0.531-5.016,1.421-10.16,1.421  c-5.142,0-8.568-0.89-10.154-1.421c-0.399-0.134-0.668-0.513-0.668-0.945l-0.006-20.742C39.172,46.952,39.327,44.936,40.103,42.93z   M42.084,39.255c0.164-0.254,0.335-0.516,0.517-0.791c0.497-0.751,0.893-1.497,1.236-2.23h12.325  c0.344,0.734,0.739,1.48,1.237,2.231c3.012,4.544,3.429,6.026,3.429,12.201v7.333L42.084,39.255z M45.491,29.248h9.018  c0.019,1.154,0.192,2.944,0.855,4.985H44.637C45.3,32.192,45.472,30.401,45.491,29.248z M44.689,26.737  c0-0.281,0.229-0.51,0.511-0.51h9.6c0.281,0,0.511,0.229,0.511,0.51c0,0.282-0.229,0.511-0.511,0.511h-0.19h-9.219H45.2  C44.919,27.248,44.689,27.019,44.689,26.737z M15.335,50c0-8.839,3.33-16.912,8.796-23.042l14.446,14.445  c-1.16,2.53-1.405,4.82-1.405,9.262l0.006,20.742c0,1.292,0.817,2.434,2.033,2.841c1.701,0.569,5.364,1.524,10.789,1.524  c5.428,0,9.093-0.956,10.795-1.525c1.216-0.406,2.033-1.548,2.033-2.841v-5.753L73.045,75.87c-6.13,5.466-14.203,8.797-23.043,8.797  C30.886,84.667,15.335,69.115,15.335,50z"/></svg>
