<svg xmlns="http://www.w3.org/2000/svg" xmlns:xlink="http://www.w3.org/1999/xlink" version="1.1" x="0px" y="0px" viewBox="0 0 100 125" enable-background="new 0 0 100 100" xml:space="preserve"><path d="M54.6,44.2c0.6,0,1-0.4,1-1V42c0-0.6-0.4-1-1-1s-1,0.4-1,1v1.3C53.6,43.8,54.1,44.2,54.6,44.2z"/><path d="M50,12.3c-20.8,0-37.7,16.9-37.7,37.7S29.2,87.7,50,87.7S87.7,70.8,87.7,50S70.8,12.3,50,12.3z M85.7,50  c0,9.5-3.7,18.1-9.8,24.5L50.5,49.1c0.8-0.1,1.7-0.1,2.6-0.1c6.9,0,10.7-5,11.9-7.9c0.2-0.5,0.2-1,0.2-1.4c1.3-0.9,4-3.2,4.7-6.5  c0.5-2.5-0.4-5.1-2.5-7.6c-0.4-0.4-1-0.5-1.4-0.1c-0.4,0.4-0.5,1-0.1,1.4c1.7,2,2.4,4,2,6c-0.3,1.8-1.5,3.2-2.5,4.2  c0-2.5-0.9-5.6-4.5-7.4c-2.3-1.1-4.6-1.2-6.9-0.2c-0.5,0.2-0.7,0.8-0.5,1.3s0.8,0.7,1.3,0.5c1.7-0.8,3.4-0.7,5.2,0.2  c3.2,1.6,3.5,4.4,3.4,6.1c-0.3-0.1-0.6-0.2-0.9-0.2H44.2c-1.7,0-3.3,0.3-4.8,0.8l-14-14c6.4-6,15-9.8,24.5-9.8  C69.7,14.3,85.7,30.3,85.7,50z M43.8,69.8c0,2.1-1.2,3.9-1.9,4.9c-0.7-0.9-1.9-2.7-1.9-4.9s1.2-4,1.9-4.9  C42.6,65.9,43.8,67.7,43.8,69.8z M43.4,63.3c0.9-0.7,2.8-1.9,4.9-1.9c2.1,0,3.9,1.2,4.9,1.9c-0.9,0.7-2.7,1.9-4.9,1.9  C46.2,65.3,44.4,64.1,43.4,63.3z M40.9,62.3c-0.2,0.3-0.6,0.5-1,0.4c-3-1.1-5.3-3.4-6.6-6.2c1.6,1,3.2,1.3,4.6,1.3  c0.5,0,0.9,0,1.3-0.1c0.3,1.2,0.9,2.5,1.7,3.8C41,61.9,41,62.2,40.9,62.3z M39.7,52.2c-0.6,1.1-0.9,2.3-0.8,3.6  C37.6,56,34.7,56,32.2,53c-0.1-0.5-0.1-1.1-0.1-1.6c0-2.4,0.7-4.6,1.9-6.5c1.8,3.6,4.8,5.2,6.8,5.8C40.3,51.2,40,51.6,39.7,52.2z   M35.4,43.1c1-1.1,2.3-2,3.7-2.7l7.3,7.3c-1.4,0.4-2.5,0.8-3.6,1.4C41.6,49,37.3,47.9,35.4,43.1z M41.1,39.7c1-0.3,2.1-0.4,3.2-0.4  h0.3c-0.1,1.6,0,3,0.4,4.3L41.1,39.7z M46.5,39.2h15.9c0.3,0,0.5,0.1,0.6,0.3c0.1,0.2,0.2,0.5,0.1,0.7c-1,2.5-4.2,6.6-10,6.6  c0,0,0,0,0,0c-2.4,0-4.1-0.6-5.2-1.9C46.8,43.8,46.3,41.8,46.5,39.2z M14.3,50c0-9.5,3.7-18.1,9.8-24.5l13.4,13.4  c-1.5,0.8-2.9,1.9-4,3.2c0,0-0.1,0.1-0.1,0.1c-2.1,2.5-3.4,5.7-3.4,9.2c0,0.8,0.1,1.5,0.2,2.3c0,0,0,0,0,0c0.8,4.9,4.2,9.1,8.9,10.9  c0.1,0,0.2,0.1,0.4,0.1c-0.8,1.3-1.7,3.1-1.7,5.1c0,3,1.7,5.4,2.7,6.5c0.3,0.4,0.8,0.6,1.2,0.6c0.5,0,0.9-0.2,1.2-0.6  c1-1.2,2.7-3.6,2.7-6.5c0-1.2-0.3-2.3-0.7-3.2c1,0.4,2,0.6,3.2,0.6c3,0,5.4-1.7,6.5-2.7c0.4-0.3,0.6-0.8,0.6-1.2s-0.2-0.9-0.6-1.2  c-1.2-1-3.6-2.7-6.5-2.7c-2.2,0-4.2,1-5.5,1.9c-0.1-0.2-0.2-0.5-0.3-0.7c-1.8-3-2.2-5.5-1.1-7.4c0.3-0.5,0.6-0.9,1.1-1.3  c0.6,0.5,1.4,1.6,0.8,2.9c-0.2,0.5,0,1.1,0.5,1.3c0.1,0.1,0.3,0.1,0.4,0.1c0.4,0,0.7-0.2,0.9-0.6c0.9-2,0.1-3.8-0.9-4.9  c0,0,0,0,0.1,0c0.7,0.2,2.3,0.8,2.4,2.4c0,0.5,0.5,1,1,1c0,0,0,0,0,0c0.6,0,1-0.5,1-1c0-1.5-0.8-2.6-1.8-3.3  c0.4-0.1,0.8-0.2,1.2-0.3l26.5,26.5c-6.4,6-15,9.8-24.5,9.8C30.3,85.7,14.3,69.7,14.3,50z"/></svg>
