<svg xmlns="http://www.w3.org/2000/svg" xmlns:xlink="http://www.w3.org/1999/xlink" version="1.1" x="0px" y="0px" viewBox="0 0 100 125" enable-background="new 0 0 100 100" xml:space="preserve"><path d="M50,12.3c-20.8,0-37.7,16.9-37.7,37.7S29.2,87.7,50,87.7S87.7,70.8,87.7,50S70.8,12.3,50,12.3z M85.7,50  c0,9.5-3.7,18.1-9.8,24.5L57.6,56.2c1.5-1.5,2.3-2.9,2.3-3C60,53,60,52.7,60,52.5c3.6-1.4,5.7-4.8,6.1-5.5l5.6-5.6  c0.4-0.4,0.4-1,0-1.4s-1-0.4-1.4,0l-5.2,5.2c-0.6-0.3-1.7-0.8-3-1.1c0.6-0.4,1.2-0.8,1.8-1.4c2.9-2.9,3.2-6.9,3.2-8.3l3.1-3.1  c0.4-0.4,0.4-1,0-1.4c-0.4-0.4-1-0.4-1.4,0L65.7,33c-1.4,0-5.5,0.4-8.2,3.2c-0.6,0.6-1.1,1.3-1.5,2c-0.3-1.5-0.8-2.6-1.2-3.3  l5.2-5.2c0.4-0.4,0.4-1,0-1.4s-1-0.4-1.4,0l-5.6,5.6c-0.7,0.4-4.1,2.6-5.5,6.2c-0.2,0-0.3,0-0.4,0.1c-0.1,0.1-1.5,0.9-3,2.3  L25.5,24.1c6.4-6,15-9.8,24.5-9.8C69.7,14.3,85.7,30.3,85.7,50z M42.9,47.9c0.2-0.9,0.7-1.7,1.2-2.4l3.8,3.8  c-0.7,2.7-2.9,4.5-4.1,5.4C43.2,53.3,42.2,50.6,42.9,47.9z M57.1,46c2.7-0.7,5.4,0.2,6.7,0.8c-0.9,1.2-2.7,3.4-5.4,4.1  C58.3,51,58.1,51,58,51c0,0,0,0,0,0c-1.2-0.5-3-1.1-5-1.1c-0.4,0-0.8,0-1.2,0.1C52.6,48.8,54.4,46.7,57.1,46z M56.3,43.8  c0.1-1.5,0.7-4.3,2.6-6.2c1.9-1.9,4.7-2.4,6.2-2.6c-0.1,1.5-0.6,4.2-2.6,6.2C60.5,43.2,57.7,43.7,56.3,43.8z M53.9,42.8  c-0.7,2.5-2.6,4.3-3.9,5.2c0.2-2.5-0.6-4.8-1.2-6.2c0-0.1,0-0.2,0.1-0.4c0.7-2.6,2.9-4.5,4.1-5.4C53.7,37.4,54.7,40.1,53.9,42.8z   M45.3,43.9c0.6-0.6,1.2-1.1,1.7-1.4c0.4,0.9,1,2.4,1.1,4.2L45.3,43.9z M46.8,54.7L46.8,54.7c0.1-0.1,0.1-0.1,0.1-0.1  c1-1,2.3-1.9,3.9-2.4l3.8,3.8c-0.7,0.5-1.5,0.9-2.4,1.2c-0.6,0.2-1.3,0.3-2,0.3c-1.9,0-3.7-0.6-4.7-1.1  C45.8,55.9,46.2,55.3,46.8,54.7z M53.4,52c1.7,0.1,3.3,0.7,4.2,1.1c-0.3,0.5-0.8,1.1-1.4,1.7L53.4,52z M14.3,50  c0-9.5,3.7-18.1,9.8-24.5L42.6,44c-0.7,1-1.3,2.1-1.6,3.3c-1.1,4,0.8,7.9,1.4,8.9L28.3,70.4c-0.4,0.4-0.4,1,0,1.4  c0.2,0.2,0.5,0.3,0.7,0.3s0.5-0.1,0.7-0.3l14.1-14.1c0.8,0.4,3.4,1.7,6.4,1.7c0.9,0,1.7-0.1,2.5-0.3c1.3-0.3,2.4-1,3.3-1.6  l18.4,18.4c-6.4,6-15,9.8-24.5,9.8C30.3,85.7,14.3,69.7,14.3,50z"/></svg>
