<svg xmlns="http://www.w3.org/2000/svg" xmlns:xlink="http://www.w3.org/1999/xlink" version="1.1" x="0px" y="0px" viewBox="0 0 100 125" style="enable-background:new 0 0 100 100;" xml:space="preserve"><style type="text/css">
	.st0{fill:none;stroke:#000000;stroke-width:6;stroke-miterlimit:10;}
</style><path d="M42.4,79.6c1.7-4.3,4.9-7.4,8.9-9.1c0.5-0.2,1,0.2,0.9,0.8c-2,7.2,1.2,14.8,7.7,18.5C72.6,86,82,74.1,82,60  c0-4.8-3.3-11.2-7.8-18.6c-0.2-0.4-0.8-0.2-0.8,0.2c-0.3,4.6-2.9,16.3-7,13.2c-0.3-0.2-0.4-0.6-0.4-1l0.2-0.9c2-10-5-17-10-26  c-4-7.3-0.9-16.5,0.4-19.8c0.1-0.3-0.3-0.7-0.6-0.4C39.2,19,36.3,27.4,37.1,33c0.8,5.3,5,8.8,4,15c-0.5,3.4-2.5,6.3-4.7,8.5  c-0.2,0.2-0.7,0.3-1,0.3c-3.7-0.9-6.5-8.7-7.6-12.8c-0.2-0.9-1.4-1-1.8-0.2C22.5,50,20,55.9,20,60c0,13.9,9.2,25.7,21.8,29.6  C41,86.4,41.1,82.9,42.4,79.6z"/></svg>
