<svg xmlns="http://www.w3.org/2000/svg" xmlns:xlink="http://www.w3.org/1999/xlink" version="1.1" x="0px" y="0px" viewBox="0 0 100 125" enable-background="new 0 0 100 100" xml:space="preserve"><path d="M50,11.3c-21.3,0-38.7,17.3-38.7,38.7c0,21.3,17.3,38.7,38.7,38.7S88.7,71.3,88.7,50C88.7,28.7,71.3,11.3,50,11.3z M84.7,50  c0,8.8-3.3,16.9-8.8,23L58.3,55.4c1-1.2,1.6-2.2,1.6-2.2C60,53,60,52.7,60,52.5c3.6-1.4,5.7-4.8,6.1-5.5l5.6-5.6  c0.4-0.4,0.4-1,0-1.4s-1-0.4-1.4,0l-5.2,5.2c-0.6-0.3-1.7-0.8-3-1.1c0.6-0.4,1.2-0.8,1.8-1.4c2.9-2.9,3.2-6.9,3.2-8.3l3.1-3.1  c0.4-0.4,0.4-1,0-1.4c-0.4-0.4-1-0.4-1.4,0L65.7,33c-1.4,0-5.5,0.4-8.2,3.2c-0.6,0.6-1.1,1.3-1.5,2c-0.3-1.5-0.8-2.6-1.2-3.3  l5.2-5.2c0.4-0.4,0.4-1,0-1.4s-1-0.4-1.4,0l-5.6,5.6c-0.7,0.4-4.1,2.6-5.5,6.2c-0.2,0-0.3,0-0.4,0.1c-0.1,0-1.1,0.6-2.2,1.6L27,24.1  c6.1-5.5,14.2-8.8,23-8.8C69.1,15.3,84.7,30.9,84.7,50z M42.9,47.9c0.1-0.6,0.4-1.1,0.6-1.5l3.9,3.9c-0.9,2.1-2.7,3.6-3.7,4.3  C43.2,53.3,42.2,50.6,42.9,47.9z M48.9,41.9c0-0.1,0-0.2,0.1-0.4c0.7-2.6,2.9-4.5,4.1-5.4c0.6,1.3,1.6,4,0.8,6.7  c-0.6,2.3-2.2,3.9-3.4,4.9l-0.4-0.4C50.1,45.1,49.5,43.1,48.9,41.9z M57.1,46c2.7-0.7,5.4,0.2,6.7,0.8c-0.9,1.2-2.7,3.4-5.4,4.1  C58.3,51,58.1,51,58,51c0,0,0,0,0,0c-1.2-0.5-3-1.1-5-1.1c0,0-0.1,0-0.1,0l-0.6-0.6C53.2,48.2,54.8,46.6,57.1,46z M56.3,43.8  c0.1-1.5,0.7-4.3,2.6-6.2c1.9-1.9,4.7-2.4,6.2-2.6c-0.1,1.5-0.6,4.2-2.6,6.2C60.5,43.2,57.7,43.7,56.3,43.8z M56.8,54L55,52.2  c1,0.2,1.9,0.6,2.5,0.9C57.4,53.3,57.1,53.7,56.8,54z M46.1,43.3c0.3-0.3,0.7-0.5,0.9-0.7c0.3,0.6,0.6,1.5,0.9,2.5L46.1,43.3z   M46.8,54.7L46.8,54.7c0.1-0.1,0.1-0.1,0.1-0.1c0.8-0.7,1.7-1.5,2.9-2l3.9,3.9c-0.5,0.3-1,0.5-1.5,0.6c-0.6,0.2-1.3,0.3-2,0.3  c-1.9,0-3.7-0.6-4.7-1.1C45.8,55.9,46.2,55.3,46.8,54.7z M15.3,50c0-8.8,3.3-16.9,8.8-23l17.9,17.9c-0.5,0.8-0.8,1.6-1.1,2.5  c-1.1,4,0.8,7.9,1.4,8.9L28.3,70.4c-0.4,0.4-0.4,1,0,1.4c0.2,0.2,0.5,0.3,0.7,0.3s0.5-0.1,0.7-0.3l14.1-14.1  c0.8,0.4,3.4,1.7,6.4,1.7c0.9,0,1.7-0.1,2.5-0.3c0.9-0.2,1.7-0.6,2.5-1.1L73,75.9c-6.1,5.5-14.2,8.8-23,8.8  C30.9,84.7,15.3,69.1,15.3,50z"/></svg>
