<svg xmlns="http://www.w3.org/2000/svg" xmlns:xlink="http://www.w3.org/1999/xlink" version="1.1" x="0px" y="0px" viewBox="0 0 100 125" enable-background="new 0 0 100 100" xml:space="preserve"><path d="M50,12.333C29.23,12.333,12.333,29.23,12.333,50S29.23,87.667,50,87.667S87.667,70.77,87.667,50S70.77,12.333,50,12.333z   M50,85.667c-19.667,0-35.667-16-35.667-35.667s16-35.667,35.667-35.667s35.667,16,35.667,35.667S69.667,85.667,50,85.667z"/><path d="M75.944,46.511c-0.138-0.057-3.413-1.393-7.768-1.393c-3.713,0-7.053,0.959-9.927,2.852  c-2.024,1.333-3.408,3.374-3.896,5.748c-0.444,2.154-0.094,4.345,0.969,6.245c-0.917,1.052-1.768,2.249-2.432,3.61  c-0.375-1.349-0.97-2.873-1.887-4.442c3.666-4.677,3.598-11.459-0.481-16.061c-6.857-7.735-17.051-8.57-21.115-8.57  c-1.463,0-2.358,0.1-2.396,0.104c-0.413,0.047-0.753,0.344-0.855,0.747c-0.146,0.573-3.476,14.157,5.58,24.373  c2.381,2.686,5.806,4.226,9.397,4.226c3.067,0,6.023-1.122,8.321-3.159c0.057-0.051,0.106-0.107,0.162-0.159  c2.185,4.019,1.93,7.51,1.906,7.77c0,0.002,0,0.003-0.001,0.005c-0.051,0.549,0.353,1.037,0.901,1.089  c0.032,0.003,0.064,0.004,0.096,0.004c0.51,0,0.944-0.387,0.994-0.904c0,0,0-0.001,0.001-0.002c0.259-2.765,1.491-5.058,3.004-6.902  c2.153,2.579,4.55,3.163,6.273,3.163c2.536,0,4.646-1.209,5.437-1.729c7.938-5.227,8.32-15.238,8.333-15.662  C76.572,47.049,76.327,46.67,75.944,46.511z M41.195,50.448c-0.498-0.242-1.096-0.035-1.337,0.462s-0.035,1.095,0.462,1.337  c3.976,1.935,6.546,4.317,8.211,6.652c-0.134,0.132-0.26,0.268-0.402,0.394c-1.933,1.713-4.417,2.656-6.995,2.656  c-3.02,0-5.899-1.295-7.901-3.552c-7.232-8.16-5.81-19.032-5.282-21.859c0.365-0.02,0.859-0.038,1.457-0.038  c3.794,0,13.301,0.77,19.619,7.897c3.273,3.694,3.469,9.057,0.799,12.957C47.991,54.89,45.266,52.429,41.195,50.448z M67.128,61.455  c-0.639,0.421-2.341,1.399-4.337,1.399c-1.876,0-3.523-0.894-4.91-2.655c2.724-2.643,5.71-3.985,5.763-4.009  c0.505-0.222,0.735-0.812,0.515-1.317c-0.222-0.504-0.805-0.736-1.316-0.516c-0.228,0.099-3.2,1.435-6.049,4.086  c-0.609-1.348-0.786-2.846-0.482-4.323c0.382-1.85,1.46-3.441,3.038-4.48c2.542-1.674,5.512-2.522,8.827-2.522  c2.845,0,5.217,0.641,6.327,1.001C74.26,50.399,73.038,57.564,67.128,61.455z"/></svg>
