<svg xmlns="http://www.w3.org/2000/svg" xmlns:xlink="http://www.w3.org/1999/xlink" viewBox="0 0 100 125" version="1.1" x="0px" y="0px"><title>Star 9.6</title><desc>Created with Sketch.</desc><g stroke="none" stroke-width="1" fill="none" fill-rule="evenodd"><g fill-rule="nonzero" fill="#000000"><path d="M49.1901801,60.5134704 C49.6374313,60.1870274 50.3636802,60.1878387 50.8098199,60.5134704 L60.3658889,67.4883238 C62.150243,68.7907012 63.0412818,68.1495674 62.3523919,66.0450449 L58.6718998,54.801335 C58.4996423,54.2750974 58.7248371,53.5846444 59.172396,53.260966 L68.7588635,46.3279526 C70.5488938,45.0333878 70.2144854,43.9878382 68.0000869,43.9926783 L56.1693487,44.0185368 C55.6156365,44.0197471 55.0285657,43.5922124 54.8590326,43.0665365 L51.2277264,31.806845 C50.5496718,29.7043826 49.4519573,29.6993313 48.7722736,31.806845 L45.1409674,43.0665365 C44.971012,43.593522 44.3829875,44.0197441 43.8306513,44.0185368 L31.9999131,43.9926783 C29.7908221,43.9878498 29.4468056,45.0302775 31.2411365,46.3279526 L40.827604,53.260966 C41.2762779,53.5854508 41.4999296,54.2764052 41.3281002,54.801335 L37.6476081,66.0450449 C36.9603693,68.1445233 37.84547,68.7938303 39.6341111,67.4883238 L49.1901801,60.5134704 Z"/><path d="M50,92.5 C26.5278981,92.5 7.5,73.4721019 7.5,50 C7.5,26.5278981 26.5278981,7.5 50,7.5 C73.4721019,7.5 92.5,26.5278981 92.5,50 C92.5,73.4721019 73.4721019,92.5 50,92.5 Z M50,87.5 C70.7106781,87.5 87.5,70.7106781 87.5,50 C87.5,29.2893219 70.7106781,12.5 50,12.5 C29.2893219,12.5 12.5,29.2893219 12.5,50 C12.5,70.7106781 29.2893219,87.5 50,87.5 Z"/></g></g></svg>
