<svg xmlns="http://www.w3.org/2000/svg" xmlns:xlink="http://www.w3.org/1999/xlink" version="1.1" x="0px" y="0px" viewBox="0 0 100 125" enable-background="new 0 0 100 100" xml:space="preserve"><path d="M83.953,49.734c-0.144-21.646-17.795-39.213-39.474-39.213C22.71,10.522,5,28.232,5,50c0,1.508,0.088,2.995,0.253,4.459  c0.69-1.602,1.66-3.14,2.817-4.577C8.134,29.86,24.441,13.59,44.478,13.59c19.486,0,35.445,15.388,36.366,34.65  c-2.43-1.309-5.107-3.074-7.977-5.45c-26.308-21.772-40.017-0.369-40.365,0.147c11.708,0.456,20.766,7.845,32.814,8.835  c1.909,0.157-1.327,1.778-2.256,1.701c-5.707-0.469-10.268-2.652-15.174-4.761c-1.682-0.632-3.387-1.288-5.164-1.922  c-0.723-0.258-1.429-0.52-2.125-0.776c-2.777-0.756-5.542-1.128-8.244-1.155c0.022,0.401,0.053,0.859,0.128,1.384  c0.398,1.515,1.299,3.649,3.197,6.618c10.417,11.73,20.981,14.919,30.251,14.181c4.427-0.352,8.559-1.601,12.239-3.243  C72.72,77.053,59.672,86.41,44.478,86.41c-14.593,0-27.206-8.631-33.009-21.055C7.955,52.097,22.908,44.974,32.245,45.025  c0.018,0,0.037,0,0.055,0v-0.167v-1.753c-1.635-0.053-3.319,0.025-5.072,0.281c-3.126,0.455-6.576,1.31-9.66,2.684  c-3.874,1.971-7.343,5.341-8.985,9.57c-0.014,0.073-0.028,0.146-0.04,0.22c-0.004-0.027-0.009-0.053-0.013-0.08  c-1.191,3.157-1.365,6.785,0.064,10.665c6.248,13.58,19.983,23.033,35.886,23.033c17.664,0,32.655-11.662,37.68-27.691  C90.02,57.354,95,51.782,95,51.782S90.78,52.627,83.953,49.734z"/></svg>
